# xmcd
#
# Track frame offsets:
#	180
#	25390
#	37129
#	49632
#	73704
#	85733
#	97866
#	119369
#	129349
#	151826
#	170945
#	189520
#
# Disc length: 2734 seconds
#
# Revision: 1
# Processed by: cddbd v1.4PL0 Copyright (c) Steve Scherf et al.
# Submitted via: EasyCDDAExtractor 5.1.0
#
DISCID=9c0aac0c
DTITLE=compilation disc - Ricordando La Sicilia
DYEAR=1900
DGENRE=Country
TTITLE0=mi vogghiu maitari
TTITLE1=ciuri ciuri
TTITLE2=passu cantannu
TTITLE3=tarantella pizzicata
TTITLE4=siciliana bedda
TTITLE5=lassila e pigghila
TTITLE6=a viddanedda
TTITLE7=frauliddi
TTITLE8=controdanza amurusa
TTITLE9=tarantella schiticchiusa
TTITLE10=vitti na crozza
TTITLE11=cantu di caritteri
EXTD=
EXTT0=
EXTT1=
EXTT2=
EXTT3=
EXTT4=
EXTT5=
EXTT6=
EXTT7=
EXTT8=
EXTT9=
EXTT10=
EXTT11=
PLAYORDER=
